<svg xmlns:xlink="http://www.w3.org/1999/xlink" xmlns="http://www.w3.org/2000/svg" class="css-ze2te4 css-qd6ojx" viewBox="0 0 100 85.38011695906432" width="110"  height="94" ><defs><linearGradient id="SvgjsLinearGradient4461"><stop id="SvgjsStop4462" stop-color="#ef4136" offset="0"></stop><stop id="SvgjsStop4463" stop-color="#fbb040" offset="1"></stop></linearGradient><linearGradient id="SvgjsLinearGradient4461"><stop id="SvgjsStop4462" stop-color="#ef4136" offset="0"></stop><stop id="SvgjsStop4463" stop-color="#fbb040" offset="1"></stop></linearGradient><linearGradient id="SvgjsLinearGradient4461"><stop id="SvgjsStop4462" stop-color="#ef4136" offset="0"></stop><stop id="SvgjsStop4463" stop-color="#fbb040" offset="1"></stop></linearGradient><linearGradient id="SvgjsLinearGradient4461"><stop id="SvgjsStop4462" stop-color="#ef4136" offset="0"></stop><stop id="SvgjsStop4463" stop-color="#fbb040" offset="1"></stop></linearGradient><linearGradient id="SvgjsLinearGradient4461"><stop id="SvgjsStop4462" stop-color="#ef4136" offset="0"></stop><stop id="SvgjsStop4463" stop-color="#fbb040" offset="1"></stop></linearGradient><linearGradient id="SvgjsLinearGradient4461"><stop id="SvgjsStop4462" stop-color="#ef4136" offset="0"></stop><stop id="SvgjsStop4463" stop-color="#fbb040" offset="1"></stop></linearGradient><linearGradient id="SvgjsLinearGradient4461"><stop id="SvgjsStop4462" stop-color="#ef4136" offset="0"></stop><stop id="SvgjsStop4463" stop-color="#fbb040" offset="1"></stop></linearGradient><linearGradient id="SvgjsLinearGradient4461"><stop id="SvgjsStop4462" stop-color="#ef4136" offset="0"></stop><stop id="SvgjsStop4463" stop-color="#fbb040" offset="1"></stop></linearGradient><linearGradient id="SvgjsLinearGradient4461"><stop id="SvgjsStop4462" stop-color="#ef4136" offset="0"></stop><stop id="SvgjsStop4463" stop-color="#fbb040" offset="1"></stop></linearGradient><linearGradient id="SvgjsLinearGradient4461"><stop id="SvgjsStop4462" stop-color="#ef4136" offset="0"></stop><stop id="SvgjsStop4463" stop-color="#fbb040" offset="1"></stop></linearGradient><linearGradient id="SvgjsLinearGradient4461"><stop id="SvgjsStop4462" stop-color="#ef4136" offset="0"></stop><stop id="SvgjsStop4463" stop-color="#fbb040" offset="1"></stop></linearGradient><linearGradient id="SvgjsLinearGradient4461"><stop id="SvgjsStop4462" stop-color="#ef4136" offset="0"></stop><stop id="SvgjsStop4463" stop-color="#fbb040" offset="1"></stop></linearGradient><linearGradient id="SvgjsLinearGradient4461"><stop id="SvgjsStop4462" stop-color="#ef4136" offset="0"></stop><stop id="SvgjsStop4463" stop-color="#fbb040" offset="1"></stop></linearGradient><linearGradient id="SvgjsLinearGradient4461"><stop id="SvgjsStop4462" stop-color="#ef4136" offset="0"></stop><stop id="SvgjsStop4463" stop-color="#fbb040" offset="1"></stop></linearGradient><linearGradient id="SvgjsLinearGradient4461"><stop id="SvgjsStop4462" stop-color="#ef4136" offset="0"></stop><stop id="SvgjsStop4463" stop-color="#fbb040" offset="1"></stop></linearGradient><linearGradient id="SvgjsLinearGradient4461"><stop id="SvgjsStop4462" stop-color="#ef4136" offset="0"></stop><stop id="SvgjsStop4463" stop-color="#fbb040" offset="1"></stop></linearGradient><linearGradient id="SvgjsLinearGradient4461"><stop id="SvgjsStop4462" stop-color="#ef4136" offset="0"></stop><stop id="SvgjsStop4463" stop-color="#fbb040" offset="1"></stop></linearGradient><linearGradient id="SvgjsLinearGradient4461"><stop id="SvgjsStop4462" stop-color="#ef4136" offset="0"></stop><stop id="SvgjsStop4463" stop-color="#fbb040" offset="1"></stop></linearGradient><linearGradient id="SvgjsLinearGradient4461"><stop id="SvgjsStop4462" stop-color="#ef4136" offset="0"></stop><stop id="SvgjsStop4463" stop-color="#fbb040" offset="1"></stop></linearGradient><linearGradient id="SvgjsLinearGradient4461"><stop id="SvgjsStop4462" stop-color="#ef4136" offset="0"></stop><stop id="SvgjsStop4463" stop-color="#fbb040" offset="1"></stop></linearGradient><linearGradient id="SvgjsLinearGradient4461"><stop id="SvgjsStop4462" stop-color="#ef4136" offset="0"></stop><stop id="SvgjsStop4463" stop-color="#fbb040" offset="1"></stop></linearGradient><linearGradient id="SvgjsLinearGradient4461"><stop id="SvgjsStop4462" stop-color="#ef4136" offset="0"></stop><stop id="SvgjsStop4463" stop-color="#fbb040" offset="1"></stop></linearGradient><linearGradient id="SvgjsLinearGradient4461"><stop id="SvgjsStop4462" stop-color="#ef4136" offset="0"></stop><stop id="SvgjsStop4463" stop-color="#fbb040" offset="1"></stop></linearGradient><linearGradient id="SvgjsLinearGradient4461"><stop id="SvgjsStop4462" stop-color="#ef4136" offset="0"></stop><stop id="SvgjsStop4463" stop-color="#fbb040" offset="1"></stop></linearGradient><linearGradient id="SvgjsLinearGradient4461"><stop id="SvgjsStop4462" stop-color="#ef4136" offset="0"></stop><stop id="SvgjsStop4463" stop-color="#fbb040" offset="1"></stop></linearGradient><linearGradient id="SvgjsLinearGradient4461"><stop id="SvgjsStop4462" stop-color="#ef4136" offset="0"></stop><stop id="SvgjsStop4463" stop-color="#fbb040" offset="1"></stop></linearGradient><linearGradient id="SvgjsLinearGradient4461"><stop id="SvgjsStop4462" stop-color="#ef4136" offset="0"></stop><stop id="SvgjsStop4463" stop-color="#fbb040" offset="1"></stop></linearGradient><linearGradient id="SvgjsLinearGradient4461"><stop id="SvgjsStop4462" stop-color="#ef4136" offset="0"></stop><stop id="SvgjsStop4463" stop-color="#fbb040" offset="1"></stop></linearGradient><linearGradient id="SvgjsLinearGradient4461"><stop id="SvgjsStop4462" stop-color="#ef4136" offset="0"></stop><stop id="SvgjsStop4463" stop-color="#fbb040" offset="1"></stop></linearGradient><linearGradient id="SvgjsLinearGradient4461"><stop id="SvgjsStop4462" stop-color="#ef4136" offset="0"></stop><stop id="SvgjsStop4463" stop-color="#fbb040" offset="1"></stop></linearGradient><linearGradient id="SvgjsLinearGradient4461"><stop id="SvgjsStop4462" stop-color="#ef4136" offset="0"></stop><stop id="SvgjsStop4463" stop-color="#fbb040" offset="1"></stop></linearGradient><linearGradient id="SvgjsLinearGradient4461"><stop id="SvgjsStop4462" stop-color="#ef4136" offset="0"></stop><stop id="SvgjsStop4463" stop-color="#fbb040" offset="1"></stop></linearGradient><linearGradient id="SvgjsLinearGradient4461"><stop id="SvgjsStop4462" stop-color="#ef4136" offset="0"></stop><stop id="SvgjsStop4463" stop-color="#fbb040" offset="1"></stop></linearGradient><linearGradient id="SvgjsLinearGradient4461"><stop id="SvgjsStop4462" stop-color="#ef4136" offset="0"></stop><stop id="SvgjsStop4463" stop-color="#fbb040" offset="1"></stop></linearGradient><linearGradient id="SvgjsLinearGradient4461"><stop id="SvgjsStop4462" stop-color="#ef4136" offset="0"></stop><stop id="SvgjsStop4463" stop-color="#fbb040" offset="1"></stop></linearGradient><linearGradient id="SvgjsLinearGradient4461"><stop id="SvgjsStop4462" stop-color="#ef4136" offset="0"></stop><stop id="SvgjsStop4463" stop-color="#fbb040" offset="1"></stop></linearGradient><linearGradient id="SvgjsLinearGradient4461"><stop id="SvgjsStop4462" stop-color="#ef4136" offset="0"></stop><stop id="SvgjsStop4463" stop-color="#fbb040" offset="1"></stop></linearGradient><linearGradient id="SvgjsLinearGradient4461"><stop id="SvgjsStop4462" stop-color="#ef4136" offset="0"></stop><stop id="SvgjsStop4463" stop-color="#fbb040" offset="1"></stop></linearGradient><linearGradient id="SvgjsLinearGradient4461"><stop id="SvgjsStop4462" stop-color="#ef4136" offset="0"></stop><stop id="SvgjsStop4463" stop-color="#fbb040" offset="1"></stop></linearGradient><linearGradient id="SvgjsLinearGradient4461"><stop id="SvgjsStop4462" stop-color="#ef4136" offset="0"></stop><stop id="SvgjsStop4463" stop-color="#fbb040" offset="1"></stop></linearGradient><linearGradient id="SvgjsLinearGradient4461"><stop id="SvgjsStop4462" stop-color="#ef4136" offset="0"></stop><stop id="SvgjsStop4463" stop-color="#fbb040" offset="1"></stop></linearGradient><linearGradient id="SvgjsLinearGradient4461"><stop id="SvgjsStop4462" stop-color="#ef4136" offset="0"></stop><stop id="SvgjsStop4463" stop-color="#fbb040" offset="1"></stop></linearGradient><linearGradient id="SvgjsLinearGradient4461"><stop id="SvgjsStop4462" stop-color="#ef4136" offset="0"></stop><stop id="SvgjsStop4463" stop-color="#fbb040" offset="1"></stop></linearGradient><linearGradient id="SvgjsLinearGradient4461"><stop id="SvgjsStop4462" stop-color="#ef4136" offset="0"></stop><stop id="SvgjsStop4463" stop-color="#fbb040" offset="1"></stop></linearGradient><linearGradient id="SvgjsLinearGradient4461"><stop id="SvgjsStop4462" stop-color="#ef4136" offset="0"></stop><stop id="SvgjsStop4463" stop-color="#fbb040" offset="1"></stop></linearGradient><linearGradient id="SvgjsLinearGradient4461"><stop id="SvgjsStop4462" stop-color="#ef4136" offset="0"></stop><stop id="SvgjsStop4463" stop-color="#fbb040" offset="1"></stop></linearGradient><linearGradient id="SvgjsLinearGradient4461"><stop id="SvgjsStop4462" stop-color="#ef4136" offset="0"></stop><stop id="SvgjsStop4463" stop-color="#fbb040" offset="1"></stop></linearGradient><linearGradient id="SvgjsLinearGradient4461"><stop id="SvgjsStop4462" stop-color="#ef4136" offset="0"></stop><stop id="SvgjsStop4463" stop-color="#fbb040" offset="1"></stop></linearGradient><linearGradient id="SvgjsLinearGradient4461"><stop id="SvgjsStop4462" stop-color="#ef4136" offset="0"></stop><stop id="SvgjsStop4463" stop-color="#fbb040" offset="1"></stop></linearGradient><linearGradient id="SvgjsLinearGradient4461"><stop id="SvgjsStop4462" stop-color="#ef4136" offset="0"></stop><stop id="SvgjsStop4463" stop-color="#fbb040" offset="1"></stop></linearGradient><linearGradient id="SvgjsLinearGradient4461"><stop id="SvgjsStop4462" stop-color="#ef4136" offset="0"></stop><stop id="SvgjsStop4463" stop-color="#fbb040" offset="1"></stop></linearGradient><linearGradient id="SvgjsLinearGradient4461"><stop id="SvgjsStop4462" stop-color="#ef4136" offset="0"></stop><stop id="SvgjsStop4463" stop-color="#fbb040" offset="1"></stop></linearGradient><linearGradient id="SvgjsLinearGradient4461"><stop id="SvgjsStop4462" stop-color="#ef4136" offset="0"></stop><stop id="SvgjsStop4463" stop-color="#fbb040" offset="1"></stop></linearGradient><linearGradient id="SvgjsLinearGradient4461"><stop id="SvgjsStop4462" stop-color="#ef4136" offset="0"></stop><stop id="SvgjsStop4463" stop-color="#fbb040" offset="1"></stop></linearGradient><linearGradient id="SvgjsLinearGradient4461"><stop id="SvgjsStop4462" stop-color="#ef4136" offset="0"></stop><stop id="SvgjsStop4463" stop-color="#fbb040" offset="1"></stop></linearGradient><linearGradient id="SvgjsLinearGradient4461"><stop id="SvgjsStop4462" stop-color="#ef4136" offset="0"></stop><stop id="SvgjsStop4463" stop-color="#fbb040" offset="1"></stop></linearGradient><linearGradient id="SvgjsLinearGradient4461"><stop id="SvgjsStop4462" stop-color="#ef4136" offset="0"></stop><stop id="SvgjsStop4463" stop-color="#fbb040" offset="1"></stop></linearGradient><linearGradient id="SvgjsLinearGradient4461"><stop id="SvgjsStop4462" stop-color="#ef4136" offset="0"></stop><stop id="SvgjsStop4463" stop-color="#fbb040" offset="1"></stop></linearGradient><linearGradient id="SvgjsLinearGradient4461"><stop id="SvgjsStop4462" stop-color="#ef4136" offset="0"></stop><stop id="SvgjsStop4463" stop-color="#fbb040" offset="1"></stop></linearGradient><linearGradient id="SvgjsLinearGradient4461"><stop id="SvgjsStop4462" stop-color="#ef4136" offset="0"></stop><stop id="SvgjsStop4463" stop-color="#fbb040" offset="1"></stop></linearGradient><linearGradient id="SvgjsLinearGradient4461"><stop id="SvgjsStop4462" stop-color="#ef4136" offset="0"></stop><stop id="SvgjsStop4463" stop-color="#fbb040" offset="1"></stop></linearGradient><linearGradient id="SvgjsLinearGradient4461"><stop id="SvgjsStop4462" stop-color="#ef4136" offset="0"></stop><stop id="SvgjsStop4463" stop-color="#fbb040" offset="1"></stop></linearGradient><linearGradient id="SvgjsLinearGradient4461"><stop id="SvgjsStop4462" stop-color="#ef4136" offset="0"></stop><stop id="SvgjsStop4463" stop-color="#fbb040" offset="1"></stop></linearGradient><linearGradient id="SvgjsLinearGradient4461"><stop id="SvgjsStop4462" stop-color="#ef4136" offset="0"></stop><stop id="SvgjsStop4463" stop-color="#fbb040" offset="1"></stop></linearGradient><linearGradient id="SvgjsLinearGradient4461"><stop id="SvgjsStop4462" stop-color="#ef4136" offset="0"></stop><stop id="SvgjsStop4463" stop-color="#fbb040" offset="1"></stop></linearGradient><linearGradient id="SvgjsLinearGradient4461"><stop id="SvgjsStop4462" stop-color="#ef4136" offset="0"></stop><stop id="SvgjsStop4463" stop-color="#fbb040" offset="1"></stop></linearGradient><linearGradient id="SvgjsLinearGradient4461"><stop id="SvgjsStop4462" stop-color="#ef4136" offset="0"></stop><stop id="SvgjsStop4463" stop-color="#fbb040" offset="1"></stop></linearGradient><linearGradient id="SvgjsLinearGradient4461"><stop id="SvgjsStop4462" stop-color="#ef4136" offset="0"></stop><stop id="SvgjsStop4463" stop-color="#fbb040" offset="1"></stop></linearGradient><linearGradient id="SvgjsLinearGradient4461"><stop id="SvgjsStop4462" stop-color="#ef4136" offset="0"></stop><stop id="SvgjsStop4463" stop-color="#fbb040" offset="1"></stop></linearGradient><linearGradient id="SvgjsLinearGradient4461"><stop id="SvgjsStop4462" stop-color="#ef4136" offset="0"></stop><stop id="SvgjsStop4463" stop-color="#fbb040" offset="1"></stop></linearGradient><linearGradient id="SvgjsLinearGradient4461"><stop id="SvgjsStop4462" stop-color="#ef4136" offset="0"></stop><stop id="SvgjsStop4463" stop-color="#fbb040" offset="1"></stop></linearGradient><linearGradient id="SvgjsLinearGradient4461"><stop id="SvgjsStop4462" stop-color="#ef4136" offset="0"></stop><stop id="SvgjsStop4463" stop-color="#fbb040" offset="1"></stop></linearGradient></defs><g transform="translate(-8.47953216374269, -15.789473684210526) scale(1.1695906432748537)" class="css-acqgf4" fill="url(&quot;#SvgjsLinearGradient4461&quot;)"><metadata xmlns="http://www.w3.org/2000/svg" fill="url(&quot;#SvgjsLinearGradient4461&quot;)"><sfw xmlns="http://ns.adobe.com/SaveForWeb/1.0/" fill="url(&quot;#SvgjsLinearGradient4461&quot;)"><slices fill="url(&quot;#SvgjsLinearGradient4461&quot;)"><slicesourcebounds height="73" width="85.5" x="7.25" y="13.5" bottomleftorigin="true" fill="url(&quot;#SvgjsLinearGradient4461&quot;)"></slicesourcebounds><optimizationsettings fill="url(&quot;#SvgjsLinearGradient4461&quot;)"><targetsettings targetsettingsid="0" fileformat="GIFFormat" fill="url(&quot;#SvgjsLinearGradient4461&quot;)"><gifformat transparency="true" lossy="0" nomattecolor="false" interlaced="false" numcolors="256" includecaption="false" mattecolor="" rollovermasterpalette="false" autoreduce="false" reductionalgorithm="selective" ditheralgorithm="diffusion" webshiftpercent="0" ditherpercent="100" fill="url(&quot;#SvgjsLinearGradient4461&quot;)"><colortable isexact="false" fill="url(&quot;#SvgjsLinearGradient4461&quot;)"></colortable><lockedcolors fill="url(&quot;#SvgjsLinearGradient4461&quot;)"><colorshiftentries fill="url(&quot;#SvgjsLinearGradient4461&quot;)"></colorshiftentries></lockedcolors></gifformat></targetsettings></optimizationsettings></slices></sfw></metadata><g xmlns="http://www.w3.org/2000/svg" fill="url(&quot;#SvgjsLinearGradient4461&quot;)"><path d="M23.75,21c-0.829,0-1.5,0.671-1.5,1.5v25c0,0.829,0.671,1.5,1.5,1.5s1.5-0.671,1.5-1.5v-25   C25.25,21.671,24.579,21,23.75,21z" fill="url(&quot;#SvgjsLinearGradient4461&quot;)"></path><path d="M31.25,25.688c-0.829,0-1.5,0.671-1.5,1.5V47.5c0,0.829,0.671,1.5,1.5,1.5s1.5-0.671,1.5-1.5V27.188   C32.75,26.359,32.079,25.688,31.25,25.688z" fill="url(&quot;#SvgjsLinearGradient4461&quot;)"></path><path d="M38.75,29.75c-0.829,0-1.5,0.671-1.5,1.5V47.5c0,0.829,0.671,1.5,1.5,1.5s1.5-0.671,1.5-1.5V31.25   C40.25,30.421,39.579,29.75,38.75,29.75z" fill="url(&quot;#SvgjsLinearGradient4461&quot;)"></path><path d="M46.25,17.562c-0.829,0-1.5,0.671-1.5,1.5V47.5c0,0.829,0.671,1.5,1.5,1.5s1.5-0.671,1.5-1.5V19.062   C47.75,18.234,47.079,17.562,46.25,17.562z" fill="url(&quot;#SvgjsLinearGradient4461&quot;)"></path><path d="M53.75,33.812c-0.828,0-1.5,0.671-1.5,1.5V47.5c0,0.829,0.672,1.5,1.5,1.5s1.5-0.671,1.5-1.5V35.312   C55.25,34.484,54.578,33.812,53.75,33.812z" fill="url(&quot;#SvgjsLinearGradient4461&quot;)"></path><path d="M61.25,23.5c-0.828,0-1.5,0.671-1.5,1.5v22.5c0,0.829,0.672,1.5,1.5,1.5s1.5-0.671,1.5-1.5V25   C62.75,24.171,62.078,23.5,61.25,23.5z" fill="url(&quot;#SvgjsLinearGradient4461&quot;)"></path><path d="M68.75,21c-0.828,0-1.5,0.671-1.5,1.5v25c0,0.829,0.672,1.5,1.5,1.5s1.5-0.671,1.5-1.5v-25   C70.25,21.671,69.578,21,68.75,21z" fill="url(&quot;#SvgjsLinearGradient4461&quot;)"></path><path d="M76.25,13.5c-0.828,0-1.5,0.671-1.5,1.5v32.5c0,0.829,0.672,1.5,1.5,1.5s1.5-0.671,1.5-1.5V15   C77.75,14.171,77.078,13.5,76.25,13.5z" fill="url(&quot;#SvgjsLinearGradient4461&quot;)"></path><path d="M83.75,25.688c-0.828,0-1.5,0.671-1.5,1.5V47.5c0,0.829,0.672,1.5,1.5,1.5s1.5-0.671,1.5-1.5V27.188   C85.25,26.359,84.578,25.688,83.75,25.688z" fill="url(&quot;#SvgjsLinearGradient4461&quot;)"></path><path d="M91.25,37.875c-0.828,0-1.5,0.671-1.5,1.5V47.5c0,0.829,0.672,1.5,1.5,1.5s1.5-0.671,1.5-1.5v-8.125   C92.75,38.546,92.078,37.875,91.25,37.875z" fill="url(&quot;#SvgjsLinearGradient4461&quot;)"></path><path d="M16.25,28.5c-0.829,0-1.5,0.671-1.5,1.5v17.5c0,0.829,0.671,1.5,1.5,1.5s1.5-0.671,1.5-1.5V30   C17.75,29.171,17.079,28.5,16.25,28.5z" fill="url(&quot;#SvgjsLinearGradient4461&quot;)"></path><path d="M8.75,37.875c-0.829,0-1.5,0.671-1.5,1.5V47.5c0,0.829,0.671,1.5,1.5,1.5s1.5-0.671,1.5-1.5v-8.125   C10.25,38.546,9.579,37.875,8.75,37.875z" fill="url(&quot;#SvgjsLinearGradient4461&quot;)"></path><path d="M23.75,51c-0.829,0-1.5,0.672-1.5,1.5v25c0,0.828,0.671,1.5,1.5,1.5s1.5-0.672,1.5-1.5v-25   C25.25,51.672,24.579,51,23.75,51z" fill="url(&quot;#SvgjsLinearGradient4461&quot;)"></path><path d="M31.25,51c-0.829,0-1.5,0.672-1.5,1.5v20.312c0,0.828,0.671,1.5,1.5,1.5s1.5-0.672,1.5-1.5V52.5   C32.75,51.672,32.079,51,31.25,51z" fill="url(&quot;#SvgjsLinearGradient4461&quot;)"></path><path d="M38.75,51c-0.829,0-1.5,0.672-1.5,1.5v16.25c0,0.828,0.671,1.5,1.5,1.5s1.5-0.672,1.5-1.5V52.5   C40.25,51.672,39.579,51,38.75,51z" fill="url(&quot;#SvgjsLinearGradient4461&quot;)"></path><path d="M46.25,51c-0.829,0-1.5,0.672-1.5,1.5v28.438c0,0.828,0.671,1.5,1.5,1.5s1.5-0.672,1.5-1.5V52.5   C47.75,51.672,47.079,51,46.25,51z" fill="url(&quot;#SvgjsLinearGradient4461&quot;)"></path><path d="M53.75,51c-0.828,0-1.5,0.672-1.5,1.5v12.188c0,0.828,0.672,1.5,1.5,1.5s1.5-0.672,1.5-1.5V52.5   C55.25,51.672,54.578,51,53.75,51z" fill="url(&quot;#SvgjsLinearGradient4461&quot;)"></path><path d="M61.25,51c-0.828,0-1.5,0.672-1.5,1.5V75c0,0.828,0.672,1.5,1.5,1.5s1.5-0.672,1.5-1.5V52.5   C62.75,51.672,62.078,51,61.25,51z" fill="url(&quot;#SvgjsLinearGradient4461&quot;)"></path><path d="M68.75,51c-0.828,0-1.5,0.672-1.5,1.5v25c0,0.828,0.672,1.5,1.5,1.5s1.5-0.672,1.5-1.5v-25   C70.25,51.672,69.578,51,68.75,51z" fill="url(&quot;#SvgjsLinearGradient4461&quot;)"></path><path d="M76.25,51c-0.828,0-1.5,0.672-1.5,1.5V85c0,0.828,0.672,1.5,1.5,1.5s1.5-0.672,1.5-1.5V52.5   C77.75,51.672,77.078,51,76.25,51z" fill="url(&quot;#SvgjsLinearGradient4461&quot;)"></path><path d="M83.75,51c-0.828,0-1.5,0.672-1.5,1.5v20.312c0,0.828,0.672,1.5,1.5,1.5s1.5-0.672,1.5-1.5V52.5   C85.25,51.672,84.578,51,83.75,51z" fill="url(&quot;#SvgjsLinearGradient4461&quot;)"></path><path d="M91.25,51c-0.828,0-1.5,0.672-1.5,1.5v8.125c0,0.828,0.672,1.5,1.5,1.5s1.5-0.672,1.5-1.5V52.5   C92.75,51.672,92.078,51,91.25,51z" fill="url(&quot;#SvgjsLinearGradient4461&quot;)"></path><path d="M16.25,51c-0.829,0-1.5,0.672-1.5,1.5V70c0,0.828,0.671,1.5,1.5,1.5s1.5-0.672,1.5-1.5V52.5   C17.75,51.672,17.079,51,16.25,51z" fill="url(&quot;#SvgjsLinearGradient4461&quot;)"></path><path d="M8.75,51c-0.829,0-1.5,0.672-1.5,1.5v8.125c0,0.828,0.671,1.5,1.5,1.5s1.5-0.672,1.5-1.5V52.5   C10.25,51.672,9.579,51,8.75,51z" fill="url(&quot;#SvgjsLinearGradient4461&quot;)"></path></g></g></svg>